<mxfile host="Electron" agent="Mozilla/5.0 (Windows NT 10.0; Win64; x64) AppleWebKit/537.36 (KHTML, like Gecko) draw.io/24.7.5 Chrome/126.0.6478.183 Electron/31.3.0 Safari/537.36" version="24.7.5">
  <diagram id="pPmp7qDkxcPNNtQdCRXY" name="Seite-1">
    <mxGraphModel dx="2261" dy="844" grid="1" gridSize="10" guides="1" tooltips="1" connect="1" arrows="1" fold="1" page="1" pageScale="1" pageWidth="827" pageHeight="1169" math="0" shadow="0">
      <root>
        <mxCell id="0" />
        <mxCell id="1" parent="0" />
        <mxCell id="J5CMwq5qaOZ6lLrPTMzF-108" value="" style="rounded=0;whiteSpace=wrap;html=1;align=left;fillColor=#6a00ff;strokeColor=#3700CC;fontColor=#ffffff;" parent="1" vertex="1">
          <mxGeometry x="-140" y="580" width="960" height="160" as="geometry" />
        </mxCell>
        <mxCell id="J5CMwq5qaOZ6lLrPTMzF-2" value="&lt;div&gt;&quot;Type&quot;:&quot;Request&quot;&lt;/div&gt;" style="text;whiteSpace=wrap;html=1;align=center;verticalAlign=middle;" parent="1" vertex="1">
          <mxGeometry x="390" y="151" width="110" height="20" as="geometry" />
        </mxCell>
        <mxCell id="J5CMwq5qaOZ6lLrPTMzF-3" value="" style="endArrow=classic;html=1;exitX=0.5;exitY=1;exitDx=0;exitDy=0;entryX=0.5;entryY=0;entryDx=0;entryDy=0;" parent="1" source="J5CMwq5qaOZ6lLrPTMzF-2" target="J5CMwq5qaOZ6lLrPTMzF-11" edge="1">
          <mxGeometry width="50" height="50" relative="1" as="geometry">
            <mxPoint x="390" y="301" as="sourcePoint" />
            <mxPoint x="444.78999999999996" y="234" as="targetPoint" />
          </mxGeometry>
        </mxCell>
        <mxCell id="J5CMwq5qaOZ6lLrPTMzF-10" value="" style="edgeStyle=orthogonalEdgeStyle;rounded=0;orthogonalLoop=1;jettySize=auto;html=1;exitX=0.5;exitY=1;exitDx=0;exitDy=0;" parent="1" source="J5CMwq5qaOZ6lLrPTMzF-11" target="J5CMwq5qaOZ6lLrPTMzF-8" edge="1">
          <mxGeometry relative="1" as="geometry">
            <mxPoint x="445" y="256" as="sourcePoint" />
          </mxGeometry>
        </mxCell>
        <mxCell id="J5CMwq5qaOZ6lLrPTMzF-35" style="edgeStyle=orthogonalEdgeStyle;rounded=0;orthogonalLoop=1;jettySize=auto;html=1;exitX=0.5;exitY=1;exitDx=0;exitDy=0;" parent="1" source="J5CMwq5qaOZ6lLrPTMzF-7" target="J5CMwq5qaOZ6lLrPTMzF-15" edge="1">
          <mxGeometry relative="1" as="geometry" />
        </mxCell>
        <mxCell id="J5CMwq5qaOZ6lLrPTMzF-7" value="&quot;LED&quot;" style="text;html=1;strokeColor=none;fillColor=none;align=center;verticalAlign=middle;whiteSpace=wrap;rounded=0;" parent="1" vertex="1">
          <mxGeometry x="110" y="251" width="40" height="20" as="geometry" />
        </mxCell>
        <mxCell id="J5CMwq5qaOZ6lLrPTMzF-34" style="edgeStyle=orthogonalEdgeStyle;rounded=0;orthogonalLoop=1;jettySize=auto;html=1;exitX=0.5;exitY=1;exitDx=0;exitDy=0;entryX=0.5;entryY=0;entryDx=0;entryDy=0;" parent="1" source="J5CMwq5qaOZ6lLrPTMzF-8" target="J5CMwq5qaOZ6lLrPTMzF-23" edge="1">
          <mxGeometry relative="1" as="geometry" />
        </mxCell>
        <mxCell id="J5CMwq5qaOZ6lLrPTMzF-8" value="&quot;Buzzer&quot;" style="text;html=1;strokeColor=none;fillColor=none;align=center;verticalAlign=middle;whiteSpace=wrap;rounded=0;" parent="1" vertex="1">
          <mxGeometry x="425" y="251" width="40" height="20" as="geometry" />
        </mxCell>
        <mxCell id="J5CMwq5qaOZ6lLrPTMzF-33" style="edgeStyle=orthogonalEdgeStyle;rounded=0;orthogonalLoop=1;jettySize=auto;html=1;exitX=0.5;exitY=1;exitDx=0;exitDy=0;entryX=0.5;entryY=0;entryDx=0;entryDy=0;" parent="1" source="J5CMwq5qaOZ6lLrPTMzF-9" target="J5CMwq5qaOZ6lLrPTMzF-28" edge="1">
          <mxGeometry relative="1" as="geometry" />
        </mxCell>
        <mxCell id="J5CMwq5qaOZ6lLrPTMzF-9" value="&quot;Taster&quot;" style="text;html=1;strokeColor=none;fillColor=none;align=center;verticalAlign=middle;whiteSpace=wrap;rounded=0;" parent="1" vertex="1">
          <mxGeometry x="649.5" y="251" width="40" height="20" as="geometry" />
        </mxCell>
        <mxCell id="J5CMwq5qaOZ6lLrPTMzF-12" style="edgeStyle=orthogonalEdgeStyle;rounded=0;orthogonalLoop=1;jettySize=auto;html=1;exitX=0.25;exitY=1;exitDx=0;exitDy=0;entryX=0.5;entryY=0;entryDx=0;entryDy=0;" parent="1" source="J5CMwq5qaOZ6lLrPTMzF-11" target="J5CMwq5qaOZ6lLrPTMzF-7" edge="1">
          <mxGeometry relative="1" as="geometry" />
        </mxCell>
        <mxCell id="J5CMwq5qaOZ6lLrPTMzF-13" style="edgeStyle=orthogonalEdgeStyle;rounded=0;orthogonalLoop=1;jettySize=auto;html=1;exitX=0.75;exitY=1;exitDx=0;exitDy=0;entryX=0.5;entryY=0;entryDx=0;entryDy=0;" parent="1" source="J5CMwq5qaOZ6lLrPTMzF-11" target="J5CMwq5qaOZ6lLrPTMzF-9" edge="1">
          <mxGeometry relative="1" as="geometry" />
        </mxCell>
        <mxCell id="J5CMwq5qaOZ6lLrPTMzF-11" value="&quot;IO-Type&quot;:" style="text;html=1;strokeColor=none;fillColor=none;align=center;verticalAlign=middle;whiteSpace=wrap;rounded=0;" parent="1" vertex="1">
          <mxGeometry x="410" y="191" width="70" height="20" as="geometry" />
        </mxCell>
        <mxCell id="J5CMwq5qaOZ6lLrPTMzF-19" style="edgeStyle=orthogonalEdgeStyle;rounded=0;orthogonalLoop=1;jettySize=auto;html=1;exitX=0.25;exitY=1;exitDx=0;exitDy=0;entryX=0.5;entryY=0;entryDx=0;entryDy=0;" parent="1" source="J5CMwq5qaOZ6lLrPTMzF-15" target="J5CMwq5qaOZ6lLrPTMzF-17" edge="1">
          <mxGeometry relative="1" as="geometry" />
        </mxCell>
        <mxCell id="J5CMwq5qaOZ6lLrPTMzF-20" style="edgeStyle=orthogonalEdgeStyle;rounded=0;orthogonalLoop=1;jettySize=auto;html=1;exitX=0.75;exitY=1;exitDx=0;exitDy=0;entryX=0.5;entryY=0;entryDx=0;entryDy=0;" parent="1" source="J5CMwq5qaOZ6lLrPTMzF-15" target="J5CMwq5qaOZ6lLrPTMzF-18" edge="1">
          <mxGeometry relative="1" as="geometry" />
        </mxCell>
        <mxCell id="J5CMwq5qaOZ6lLrPTMzF-15" value="&quot;RequestType&quot;:" style="text;html=1;strokeColor=none;fillColor=none;align=center;verticalAlign=middle;whiteSpace=wrap;rounded=0;" parent="1" vertex="1">
          <mxGeometry x="105" y="291" width="50" height="20" as="geometry" />
        </mxCell>
        <mxCell id="J5CMwq5qaOZ6lLrPTMzF-41" style="edgeStyle=orthogonalEdgeStyle;rounded=0;orthogonalLoop=1;jettySize=auto;html=1;exitX=0.5;exitY=1;exitDx=0;exitDy=0;entryX=0.5;entryY=0;entryDx=0;entryDy=0;" parent="1" source="J5CMwq5qaOZ6lLrPTMzF-17" target="J5CMwq5qaOZ6lLrPTMzF-36" edge="1">
          <mxGeometry relative="1" as="geometry" />
        </mxCell>
        <mxCell id="J5CMwq5qaOZ6lLrPTMzF-17" value="&quot;Get&quot;" style="text;html=1;strokeColor=none;fillColor=none;align=center;verticalAlign=middle;whiteSpace=wrap;rounded=0;" parent="1" vertex="1">
          <mxGeometry x="20" y="371" width="40" height="20" as="geometry" />
        </mxCell>
        <mxCell id="J5CMwq5qaOZ6lLrPTMzF-42" style="edgeStyle=orthogonalEdgeStyle;rounded=0;orthogonalLoop=1;jettySize=auto;html=1;exitX=0.5;exitY=1;exitDx=0;exitDy=0;entryX=0.5;entryY=0;entryDx=0;entryDy=0;" parent="1" source="J5CMwq5qaOZ6lLrPTMzF-18" target="J5CMwq5qaOZ6lLrPTMzF-37" edge="1">
          <mxGeometry relative="1" as="geometry" />
        </mxCell>
        <mxCell id="J5CMwq5qaOZ6lLrPTMzF-18" value="&quot;Set&quot;" style="text;html=1;strokeColor=none;fillColor=none;align=center;verticalAlign=middle;whiteSpace=wrap;rounded=0;" parent="1" vertex="1">
          <mxGeometry x="190" y="371" width="40" height="20" as="geometry" />
        </mxCell>
        <mxCell id="J5CMwq5qaOZ6lLrPTMzF-21" style="edgeStyle=orthogonalEdgeStyle;rounded=0;orthogonalLoop=1;jettySize=auto;html=1;exitX=0.25;exitY=1;exitDx=0;exitDy=0;entryX=0.5;entryY=0;entryDx=0;entryDy=0;" parent="1" source="J5CMwq5qaOZ6lLrPTMzF-23" target="J5CMwq5qaOZ6lLrPTMzF-24" edge="1">
          <mxGeometry relative="1" as="geometry" />
        </mxCell>
        <mxCell id="J5CMwq5qaOZ6lLrPTMzF-22" style="edgeStyle=orthogonalEdgeStyle;rounded=0;orthogonalLoop=1;jettySize=auto;html=1;exitX=0.75;exitY=1;exitDx=0;exitDy=0;entryX=0.5;entryY=0;entryDx=0;entryDy=0;" parent="1" source="J5CMwq5qaOZ6lLrPTMzF-23" target="J5CMwq5qaOZ6lLrPTMzF-25" edge="1">
          <mxGeometry relative="1" as="geometry" />
        </mxCell>
        <mxCell id="J5CMwq5qaOZ6lLrPTMzF-23" value="&quot;RequestType&quot;:" style="text;html=1;strokeColor=none;fillColor=none;align=center;verticalAlign=middle;whiteSpace=wrap;rounded=0;" parent="1" vertex="1">
          <mxGeometry x="428" y="291" width="40" height="20" as="geometry" />
        </mxCell>
        <mxCell id="J5CMwq5qaOZ6lLrPTMzF-43" style="edgeStyle=orthogonalEdgeStyle;rounded=0;orthogonalLoop=1;jettySize=auto;html=1;exitX=0.5;exitY=1;exitDx=0;exitDy=0;entryX=0.5;entryY=0;entryDx=0;entryDy=0;" parent="1" source="J5CMwq5qaOZ6lLrPTMzF-24" target="J5CMwq5qaOZ6lLrPTMzF-38" edge="1">
          <mxGeometry relative="1" as="geometry" />
        </mxCell>
        <mxCell id="J5CMwq5qaOZ6lLrPTMzF-24" value="&quot;Get&quot;" style="text;html=1;strokeColor=none;fillColor=none;align=center;verticalAlign=middle;whiteSpace=wrap;rounded=0;" parent="1" vertex="1">
          <mxGeometry x="337.25" y="371" width="40" height="20" as="geometry" />
        </mxCell>
        <mxCell id="J5CMwq5qaOZ6lLrPTMzF-44" style="edgeStyle=orthogonalEdgeStyle;rounded=0;orthogonalLoop=1;jettySize=auto;html=1;entryX=0.5;entryY=0;entryDx=0;entryDy=0;" parent="1" source="J5CMwq5qaOZ6lLrPTMzF-25" target="J5CMwq5qaOZ6lLrPTMzF-39" edge="1">
          <mxGeometry relative="1" as="geometry" />
        </mxCell>
        <mxCell id="J5CMwq5qaOZ6lLrPTMzF-25" value="&quot;Set&quot;" style="text;html=1;strokeColor=none;fillColor=none;align=center;verticalAlign=middle;whiteSpace=wrap;rounded=0;" parent="1" vertex="1">
          <mxGeometry x="497.5" y="371" width="40" height="20" as="geometry" />
        </mxCell>
        <mxCell id="J5CMwq5qaOZ6lLrPTMzF-26" style="edgeStyle=orthogonalEdgeStyle;rounded=0;orthogonalLoop=1;jettySize=auto;html=1;exitX=0.5;exitY=1;exitDx=0;exitDy=0;entryX=0.5;entryY=0;entryDx=0;entryDy=0;" parent="1" source="J5CMwq5qaOZ6lLrPTMzF-28" target="J5CMwq5qaOZ6lLrPTMzF-29" edge="1">
          <mxGeometry relative="1" as="geometry" />
        </mxCell>
        <mxCell id="J5CMwq5qaOZ6lLrPTMzF-28" value="&quot;RequestType&quot;:" style="text;html=1;strokeColor=none;fillColor=none;align=center;verticalAlign=middle;whiteSpace=wrap;rounded=0;" parent="1" vertex="1">
          <mxGeometry x="652.5" y="291" width="40" height="20" as="geometry" />
        </mxCell>
        <mxCell id="J5CMwq5qaOZ6lLrPTMzF-45" style="edgeStyle=orthogonalEdgeStyle;rounded=0;orthogonalLoop=1;jettySize=auto;html=1;exitX=0.5;exitY=1;exitDx=0;exitDy=0;entryX=0.5;entryY=0;entryDx=0;entryDy=0;" parent="1" source="J5CMwq5qaOZ6lLrPTMzF-29" target="J5CMwq5qaOZ6lLrPTMzF-40" edge="1">
          <mxGeometry relative="1" as="geometry" />
        </mxCell>
        <mxCell id="J5CMwq5qaOZ6lLrPTMzF-29" value="&quot;Get&quot;" style="text;html=1;strokeColor=none;fillColor=none;align=center;verticalAlign=middle;whiteSpace=wrap;rounded=0;" parent="1" vertex="1">
          <mxGeometry x="653" y="371" width="40" height="20" as="geometry" />
        </mxCell>
        <mxCell id="J5CMwq5qaOZ6lLrPTMzF-73" style="edgeStyle=orthogonalEdgeStyle;rounded=0;orthogonalLoop=1;jettySize=auto;html=1;exitX=0.25;exitY=1;exitDx=0;exitDy=0;entryX=0.5;entryY=0;entryDx=0;entryDy=0;" parent="1" source="J5CMwq5qaOZ6lLrPTMzF-36" target="J5CMwq5qaOZ6lLrPTMzF-68" edge="1">
          <mxGeometry relative="1" as="geometry" />
        </mxCell>
        <mxCell id="J5CMwq5qaOZ6lLrPTMzF-74" style="edgeStyle=orthogonalEdgeStyle;rounded=0;orthogonalLoop=1;jettySize=auto;html=1;exitX=0.75;exitY=1;exitDx=0;exitDy=0;entryX=0.5;entryY=0;entryDx=0;entryDy=0;" parent="1" source="J5CMwq5qaOZ6lLrPTMzF-36" target="J5CMwq5qaOZ6lLrPTMzF-71" edge="1">
          <mxGeometry relative="1" as="geometry" />
        </mxCell>
        <mxCell id="J5CMwq5qaOZ6lLrPTMzF-36" value="&lt;div&gt;&quot;Request&quot;:&lt;/div&gt;" style="text;html=1;strokeColor=none;fillColor=none;align=center;verticalAlign=middle;whiteSpace=wrap;rounded=0;" parent="1" vertex="1">
          <mxGeometry x="20" y="411" width="40" height="20" as="geometry" />
        </mxCell>
        <mxCell id="J5CMwq5qaOZ6lLrPTMzF-78" style="edgeStyle=orthogonalEdgeStyle;rounded=0;orthogonalLoop=1;jettySize=auto;html=1;exitX=0.5;exitY=1;exitDx=0;exitDy=0;entryX=0.5;entryY=0;entryDx=0;entryDy=0;" parent="1" source="J5CMwq5qaOZ6lLrPTMzF-37" target="J5CMwq5qaOZ6lLrPTMzF-76" edge="1">
          <mxGeometry relative="1" as="geometry" />
        </mxCell>
        <mxCell id="J5CMwq5qaOZ6lLrPTMzF-37" value="&lt;div&gt;&quot;Request&quot;:&lt;/div&gt;" style="text;html=1;strokeColor=none;fillColor=none;align=center;verticalAlign=middle;whiteSpace=wrap;rounded=0;" parent="1" vertex="1">
          <mxGeometry x="190" y="411" width="40" height="20" as="geometry" />
        </mxCell>
        <mxCell id="J5CMwq5qaOZ6lLrPTMzF-66" style="edgeStyle=orthogonalEdgeStyle;rounded=0;orthogonalLoop=1;jettySize=auto;html=1;exitX=0.5;exitY=1;exitDx=0;exitDy=0;entryX=0.5;entryY=0;entryDx=0;entryDy=0;" parent="1" source="J5CMwq5qaOZ6lLrPTMzF-39" target="J5CMwq5qaOZ6lLrPTMzF-64" edge="1">
          <mxGeometry relative="1" as="geometry" />
        </mxCell>
        <mxCell id="J5CMwq5qaOZ6lLrPTMzF-38" value="&lt;div&gt;&quot;Request&quot;:&lt;/div&gt;" style="text;html=1;strokeColor=none;fillColor=none;align=center;verticalAlign=middle;whiteSpace=wrap;rounded=0;" parent="1" vertex="1">
          <mxGeometry x="337.25" y="411" width="40" height="20" as="geometry" />
        </mxCell>
        <mxCell id="J5CMwq5qaOZ6lLrPTMzF-39" value="&lt;div&gt;&quot;Request&quot;:&lt;/div&gt;" style="text;html=1;strokeColor=none;fillColor=none;align=center;verticalAlign=middle;whiteSpace=wrap;rounded=0;" parent="1" vertex="1">
          <mxGeometry x="497.5" y="411" width="40" height="20" as="geometry" />
        </mxCell>
        <mxCell id="J5CMwq5qaOZ6lLrPTMzF-51" style="edgeStyle=orthogonalEdgeStyle;rounded=0;orthogonalLoop=1;jettySize=auto;html=1;exitX=0.25;exitY=1;exitDx=0;exitDy=0;entryX=0.5;entryY=0;entryDx=0;entryDy=0;" parent="1" source="J5CMwq5qaOZ6lLrPTMzF-40" target="J5CMwq5qaOZ6lLrPTMzF-48" edge="1">
          <mxGeometry relative="1" as="geometry" />
        </mxCell>
        <mxCell id="J5CMwq5qaOZ6lLrPTMzF-52" style="edgeStyle=orthogonalEdgeStyle;rounded=0;orthogonalLoop=1;jettySize=auto;html=1;exitX=0.75;exitY=1;exitDx=0;exitDy=0;entryX=0.5;entryY=0;entryDx=0;entryDy=0;" parent="1" source="J5CMwq5qaOZ6lLrPTMzF-40" target="J5CMwq5qaOZ6lLrPTMzF-49" edge="1">
          <mxGeometry relative="1" as="geometry" />
        </mxCell>
        <mxCell id="J5CMwq5qaOZ6lLrPTMzF-40" value="&lt;div&gt;&quot;Request&quot;:&lt;/div&gt;" style="text;html=1;strokeColor=none;fillColor=none;align=center;verticalAlign=middle;whiteSpace=wrap;rounded=0;" parent="1" vertex="1">
          <mxGeometry x="653" y="411" width="40" height="20" as="geometry" />
        </mxCell>
        <mxCell id="J5CMwq5qaOZ6lLrPTMzF-102" style="edgeStyle=orthogonalEdgeStyle;rounded=0;orthogonalLoop=1;jettySize=auto;html=1;exitX=0.5;exitY=1;exitDx=0;exitDy=0;entryX=0.25;entryY=0;entryDx=0;entryDy=0;" parent="1" source="J5CMwq5qaOZ6lLrPTMzF-48" target="J5CMwq5qaOZ6lLrPTMzF-97" edge="1">
          <mxGeometry relative="1" as="geometry">
            <mxPoint x="604.9999999999998" y="600" as="targetPoint" />
          </mxGeometry>
        </mxCell>
        <mxCell id="J5CMwq5qaOZ6lLrPTMzF-48" value="&quot;Amount&quot;" style="text;html=1;strokeColor=none;fillColor=none;align=center;verticalAlign=middle;whiteSpace=wrap;rounded=0;" parent="1" vertex="1">
          <mxGeometry x="585" y="471" width="40" height="20" as="geometry" />
        </mxCell>
        <mxCell id="J5CMwq5qaOZ6lLrPTMzF-53" style="edgeStyle=orthogonalEdgeStyle;rounded=0;orthogonalLoop=1;jettySize=auto;html=1;exitX=0.5;exitY=1;exitDx=0;exitDy=0;" parent="1" source="J5CMwq5qaOZ6lLrPTMzF-49" target="J5CMwq5qaOZ6lLrPTMzF-50" edge="1">
          <mxGeometry relative="1" as="geometry" />
        </mxCell>
        <mxCell id="J5CMwq5qaOZ6lLrPTMzF-49" value="&quot;Pin&quot;" style="text;html=1;strokeColor=none;fillColor=none;align=center;verticalAlign=middle;whiteSpace=wrap;rounded=0;" parent="1" vertex="1">
          <mxGeometry x="725" y="471" width="40" height="20" as="geometry" />
        </mxCell>
        <mxCell id="J5CMwq5qaOZ6lLrPTMzF-103" style="edgeStyle=orthogonalEdgeStyle;rounded=0;orthogonalLoop=1;jettySize=auto;html=1;exitX=0.5;exitY=1;exitDx=0;exitDy=0;entryX=0.75;entryY=0;entryDx=0;entryDy=0;" parent="1" source="J5CMwq5qaOZ6lLrPTMzF-50" target="J5CMwq5qaOZ6lLrPTMzF-97" edge="1">
          <mxGeometry relative="1" as="geometry" />
        </mxCell>
        <mxCell id="J5CMwq5qaOZ6lLrPTMzF-50" value="ID:x" style="text;html=1;strokeColor=none;fillColor=none;align=center;verticalAlign=middle;whiteSpace=wrap;rounded=0;" parent="1" vertex="1">
          <mxGeometry x="725" y="511" width="40" height="20" as="geometry" />
        </mxCell>
        <mxCell id="J5CMwq5qaOZ6lLrPTMzF-55" style="edgeStyle=orthogonalEdgeStyle;rounded=0;orthogonalLoop=1;jettySize=auto;html=1;exitX=0.25;exitY=1;exitDx=0;exitDy=0;entryX=0.5;entryY=0;entryDx=0;entryDy=0;" parent="1" source="J5CMwq5qaOZ6lLrPTMzF-38" target="J5CMwq5qaOZ6lLrPTMzF-58" edge="1">
          <mxGeometry relative="1" as="geometry">
            <mxPoint x="475.25" y="431" as="sourcePoint" />
            <Array as="points">
              <mxPoint x="347" y="451" />
              <mxPoint x="305" y="451" />
            </Array>
          </mxGeometry>
        </mxCell>
        <mxCell id="J5CMwq5qaOZ6lLrPTMzF-56" style="edgeStyle=orthogonalEdgeStyle;rounded=0;orthogonalLoop=1;jettySize=auto;html=1;entryX=0.5;entryY=0;entryDx=0;entryDy=0;exitX=0.75;exitY=1;exitDx=0;exitDy=0;" parent="1" source="J5CMwq5qaOZ6lLrPTMzF-38" target="J5CMwq5qaOZ6lLrPTMzF-60" edge="1">
          <mxGeometry relative="1" as="geometry">
            <mxPoint x="495.75" y="431" as="sourcePoint" />
            <Array as="points">
              <mxPoint x="367" y="451" />
              <mxPoint x="425" y="451" />
            </Array>
          </mxGeometry>
        </mxCell>
        <mxCell id="J5CMwq5qaOZ6lLrPTMzF-100" style="edgeStyle=orthogonalEdgeStyle;rounded=0;orthogonalLoop=1;jettySize=auto;html=1;exitX=0.5;exitY=1;exitDx=0;exitDy=0;entryX=0.25;entryY=0;entryDx=0;entryDy=0;" parent="1" source="J5CMwq5qaOZ6lLrPTMzF-58" target="J5CMwq5qaOZ6lLrPTMzF-94" edge="1">
          <mxGeometry relative="1" as="geometry" />
        </mxCell>
        <mxCell id="J5CMwq5qaOZ6lLrPTMzF-58" value="&quot;Amount&quot;" style="text;html=1;strokeColor=none;fillColor=none;align=center;verticalAlign=middle;whiteSpace=wrap;rounded=0;" parent="1" vertex="1">
          <mxGeometry x="285" y="471" width="40" height="20" as="geometry" />
        </mxCell>
        <mxCell id="J5CMwq5qaOZ6lLrPTMzF-59" style="edgeStyle=orthogonalEdgeStyle;rounded=0;orthogonalLoop=1;jettySize=auto;html=1;exitX=0.5;exitY=1;exitDx=0;exitDy=0;" parent="1" source="J5CMwq5qaOZ6lLrPTMzF-60" target="J5CMwq5qaOZ6lLrPTMzF-61" edge="1">
          <mxGeometry relative="1" as="geometry" />
        </mxCell>
        <mxCell id="J5CMwq5qaOZ6lLrPTMzF-60" value="&quot;Pin&quot;" style="text;html=1;strokeColor=none;fillColor=none;align=center;verticalAlign=middle;whiteSpace=wrap;rounded=0;" parent="1" vertex="1">
          <mxGeometry x="405" y="471" width="40" height="20" as="geometry" />
        </mxCell>
        <mxCell id="J5CMwq5qaOZ6lLrPTMzF-99" style="edgeStyle=orthogonalEdgeStyle;rounded=0;orthogonalLoop=1;jettySize=auto;html=1;exitX=0.5;exitY=1;exitDx=0;exitDy=0;entryX=0.75;entryY=0;entryDx=0;entryDy=0;" parent="1" source="J5CMwq5qaOZ6lLrPTMzF-61" target="J5CMwq5qaOZ6lLrPTMzF-94" edge="1">
          <mxGeometry relative="1" as="geometry">
            <mxPoint x="424.9999999999998" y="600" as="targetPoint" />
          </mxGeometry>
        </mxCell>
        <mxCell id="J5CMwq5qaOZ6lLrPTMzF-61" value="ID:x" style="text;html=1;strokeColor=none;fillColor=none;align=center;verticalAlign=middle;whiteSpace=wrap;rounded=0;" parent="1" vertex="1">
          <mxGeometry x="405" y="511" width="40" height="20" as="geometry" />
        </mxCell>
        <mxCell id="J5CMwq5qaOZ6lLrPTMzF-63" style="edgeStyle=orthogonalEdgeStyle;rounded=0;orthogonalLoop=1;jettySize=auto;html=1;exitX=0.5;exitY=1;exitDx=0;exitDy=0;" parent="1" source="J5CMwq5qaOZ6lLrPTMzF-64" target="J5CMwq5qaOZ6lLrPTMzF-65" edge="1">
          <mxGeometry relative="1" as="geometry" />
        </mxCell>
        <mxCell id="J5CMwq5qaOZ6lLrPTMzF-64" value="&quot;State&quot;" style="text;html=1;strokeColor=none;fillColor=none;align=center;verticalAlign=middle;whiteSpace=wrap;rounded=0;" parent="1" vertex="1">
          <mxGeometry x="497.5" y="471" width="40" height="20" as="geometry" />
        </mxCell>
        <mxCell id="J5CMwq5qaOZ6lLrPTMzF-101" style="edgeStyle=orthogonalEdgeStyle;rounded=0;orthogonalLoop=1;jettySize=auto;html=1;exitX=0.5;exitY=1;exitDx=0;exitDy=0;entryX=0.5;entryY=0;entryDx=0;entryDy=0;" parent="1" source="J5CMwq5qaOZ6lLrPTMzF-65" target="knhx7R2TwHY9HVWLs4xN-1" edge="1">
          <mxGeometry relative="1" as="geometry" />
        </mxCell>
        <mxCell id="J5CMwq5qaOZ6lLrPTMzF-65" value="ID:x" style="text;html=1;strokeColor=none;fillColor=none;align=center;verticalAlign=middle;whiteSpace=wrap;rounded=0;" parent="1" vertex="1">
          <mxGeometry x="497.5" y="511" width="40" height="20" as="geometry" />
        </mxCell>
        <mxCell id="J5CMwq5qaOZ6lLrPTMzF-106" style="edgeStyle=orthogonalEdgeStyle;rounded=0;orthogonalLoop=1;jettySize=auto;html=1;exitX=0.5;exitY=1;exitDx=0;exitDy=0;entryX=0.5;entryY=0;entryDx=0;entryDy=0;" parent="1" source="J5CMwq5qaOZ6lLrPTMzF-68" target="J5CMwq5qaOZ6lLrPTMzF-89" edge="1">
          <mxGeometry relative="1" as="geometry" />
        </mxCell>
        <mxCell id="J5CMwq5qaOZ6lLrPTMzF-68" value="&quot;Pin&quot;" style="text;html=1;strokeColor=none;fillColor=none;align=center;verticalAlign=middle;whiteSpace=wrap;rounded=0;" parent="1" vertex="1">
          <mxGeometry x="-45" y="471" width="40" height="20" as="geometry" />
        </mxCell>
        <mxCell id="J5CMwq5qaOZ6lLrPTMzF-70" style="edgeStyle=orthogonalEdgeStyle;rounded=0;orthogonalLoop=1;jettySize=auto;html=1;exitX=0.5;exitY=1;exitDx=0;exitDy=0;" parent="1" source="J5CMwq5qaOZ6lLrPTMzF-71" target="J5CMwq5qaOZ6lLrPTMzF-72" edge="1">
          <mxGeometry relative="1" as="geometry" />
        </mxCell>
        <mxCell id="J5CMwq5qaOZ6lLrPTMzF-71" value="&quot;Collor&quot;" style="text;html=1;strokeColor=none;fillColor=none;align=center;verticalAlign=middle;whiteSpace=wrap;rounded=0;" parent="1" vertex="1">
          <mxGeometry x="90" y="471" width="40" height="20" as="geometry" />
        </mxCell>
        <mxCell id="J5CMwq5qaOZ6lLrPTMzF-105" style="edgeStyle=orthogonalEdgeStyle;rounded=0;orthogonalLoop=1;jettySize=auto;html=1;exitX=0.5;exitY=1;exitDx=0;exitDy=0;entryX=0.5;entryY=0;entryDx=0;entryDy=0;" parent="1" source="J5CMwq5qaOZ6lLrPTMzF-72" target="J5CMwq5qaOZ6lLrPTMzF-91" edge="1">
          <mxGeometry relative="1" as="geometry" />
        </mxCell>
        <mxCell id="J5CMwq5qaOZ6lLrPTMzF-72" value="ID:x" style="text;html=1;strokeColor=none;fillColor=none;align=center;verticalAlign=middle;whiteSpace=wrap;rounded=0;" parent="1" vertex="1">
          <mxGeometry x="90" y="511" width="40" height="20" as="geometry" />
        </mxCell>
        <mxCell id="J5CMwq5qaOZ6lLrPTMzF-107" style="edgeStyle=orthogonalEdgeStyle;rounded=0;orthogonalLoop=1;jettySize=auto;html=1;exitX=0.5;exitY=1;exitDx=0;exitDy=0;entryX=0.5;entryY=0;entryDx=0;entryDy=0;" parent="1" source="J5CMwq5qaOZ6lLrPTMzF-76" target="J5CMwq5qaOZ6lLrPTMzF-77" edge="1">
          <mxGeometry relative="1" as="geometry" />
        </mxCell>
        <mxCell id="J5CMwq5qaOZ6lLrPTMzF-76" value="&quot;Collor&quot;" style="text;html=1;strokeColor=none;fillColor=none;align=center;verticalAlign=middle;whiteSpace=wrap;rounded=0;" parent="1" vertex="1">
          <mxGeometry x="190" y="471" width="40" height="20" as="geometry" />
        </mxCell>
        <mxCell id="J5CMwq5qaOZ6lLrPTMzF-80" style="edgeStyle=orthogonalEdgeStyle;rounded=0;orthogonalLoop=1;jettySize=auto;html=1;exitX=0.5;exitY=1;exitDx=0;exitDy=0;entryX=0.5;entryY=0;entryDx=0;entryDy=0;" parent="1" source="J5CMwq5qaOZ6lLrPTMzF-77" target="J5CMwq5qaOZ6lLrPTMzF-79" edge="1">
          <mxGeometry relative="1" as="geometry">
            <mxPoint x="210" y="536" as="targetPoint" />
          </mxGeometry>
        </mxCell>
        <mxCell id="J5CMwq5qaOZ6lLrPTMzF-77" value="ID:x" style="text;html=1;strokeColor=none;fillColor=none;align=center;verticalAlign=middle;whiteSpace=wrap;rounded=0;" parent="1" vertex="1">
          <mxGeometry x="190" y="511" width="40" height="20" as="geometry" />
        </mxCell>
        <mxCell id="J5CMwq5qaOZ6lLrPTMzF-104" style="edgeStyle=orthogonalEdgeStyle;rounded=0;orthogonalLoop=1;jettySize=auto;html=1;exitX=0.5;exitY=1;exitDx=0;exitDy=0;entryX=0.5;entryY=0;entryDx=0;entryDy=0;" parent="1" source="J5CMwq5qaOZ6lLrPTMzF-79" target="J5CMwq5qaOZ6lLrPTMzF-85" edge="1">
          <mxGeometry relative="1" as="geometry" />
        </mxCell>
        <mxCell id="J5CMwq5qaOZ6lLrPTMzF-79" value="&quot;R&quot;:x,&quot;G&quot;:x,&quot;B&quot;:x" style="text;html=1;strokeColor=none;fillColor=none;align=center;verticalAlign=middle;whiteSpace=wrap;rounded=0;" parent="1" vertex="1">
          <mxGeometry x="190" y="550" width="40" height="20" as="geometry" />
        </mxCell>
        <mxCell id="J5CMwq5qaOZ6lLrPTMzF-83" value="Response:" style="text;html=1;strokeColor=none;fillColor=none;align=center;verticalAlign=middle;whiteSpace=wrap;rounded=0;fontSize=21;" parent="1" vertex="1">
          <mxGeometry x="-110" y="580" width="40" height="20" as="geometry" />
        </mxCell>
        <mxCell id="J5CMwq5qaOZ6lLrPTMzF-84" value="Default:&lt;br&gt;&lt;br&gt;{&quot;Type&quot;:&quot;Response&quot;,&lt;br&gt;&quot;Success&quot;:true,&lt;br&gt;&quot;Value&quot;:&quot;OK&quot;}" style="text;html=1;strokeColor=none;fillColor=none;align=left;verticalAlign=middle;whiteSpace=wrap;rounded=0;" parent="1" vertex="1">
          <mxGeometry x="-130" y="670" width="100" height="60" as="geometry" />
        </mxCell>
        <mxCell id="J5CMwq5qaOZ6lLrPTMzF-85" value="Default" style="text;html=1;strokeColor=none;fillColor=none;align=center;verticalAlign=middle;whiteSpace=wrap;rounded=0;" parent="1" vertex="1">
          <mxGeometry x="190" y="600" width="40" height="20" as="geometry" />
        </mxCell>
        <mxCell id="J5CMwq5qaOZ6lLrPTMzF-86" value="Default" style="text;html=1;strokeColor=none;fillColor=none;align=center;verticalAlign=middle;whiteSpace=wrap;rounded=0;" parent="1" vertex="1">
          <mxGeometry x="497.5" y="600" width="40" height="20" as="geometry" />
        </mxCell>
        <mxCell id="J5CMwq5qaOZ6lLrPTMzF-89" value="&lt;span&gt;{&quot;Type&quot;:&quot;Response&quot;,&lt;/span&gt;&lt;br&gt;&lt;span&gt;&quot;Success&quot;:true,&lt;/span&gt;&lt;br&gt;&lt;span&gt;&quot;Value&quot;:x}&lt;/span&gt;" style="text;html=1;strokeColor=none;fillColor=none;align=left;verticalAlign=middle;whiteSpace=wrap;rounded=0;" parent="1" vertex="1">
          <mxGeometry x="-80" y="600" width="110" height="50" as="geometry" />
        </mxCell>
        <mxCell id="J5CMwq5qaOZ6lLrPTMzF-91" value="&lt;span&gt;{&quot;Type&quot;:&quot;Response&quot;,&lt;/span&gt;&lt;br&gt;&lt;span&gt;&quot;Success&quot;:true,&lt;/span&gt;&lt;br&gt;&lt;span&gt;&quot;Value&quot;:{&lt;/span&gt;&lt;span style=&quot;text-align: center&quot;&gt;&quot;R&quot;:x,&quot;G&quot;:x,&quot;B&quot;:x&lt;/span&gt;&lt;span&gt;}}&lt;/span&gt;" style="text;html=1;strokeColor=none;fillColor=none;align=left;verticalAlign=middle;whiteSpace=wrap;rounded=0;" parent="1" vertex="1">
          <mxGeometry x="37.5" y="600" width="145" height="50" as="geometry" />
        </mxCell>
        <mxCell id="J5CMwq5qaOZ6lLrPTMzF-94" value="&lt;span&gt;{&quot;Type&quot;:&quot;Response&quot;,&lt;/span&gt;&lt;br&gt;&lt;span&gt;&quot;Success&quot;:true,&lt;/span&gt;&lt;br&gt;&lt;span&gt;&quot;Value&quot;:x}&lt;/span&gt;" style="text;html=1;strokeColor=none;fillColor=none;align=left;verticalAlign=middle;whiteSpace=wrap;rounded=0;" parent="1" vertex="1">
          <mxGeometry x="305" y="600" width="110" height="40" as="geometry" />
        </mxCell>
        <mxCell id="J5CMwq5qaOZ6lLrPTMzF-97" value="&lt;span&gt;{&quot;Type&quot;:&quot;Response&quot;,&lt;/span&gt;&lt;br&gt;&lt;span&gt;&quot;Success&quot;:true,&lt;/span&gt;&lt;br&gt;&lt;span&gt;&quot;Value&quot;:x}&lt;/span&gt;" style="text;html=1;strokeColor=none;fillColor=none;align=left;verticalAlign=middle;whiteSpace=wrap;rounded=0;" parent="1" vertex="1">
          <mxGeometry x="615" y="600" width="110" height="50" as="geometry" />
        </mxCell>
        <mxCell id="HXyb1h_MBJMQMPyVJZ0P-5" style="edgeStyle=orthogonalEdgeStyle;rounded=0;orthogonalLoop=1;jettySize=auto;html=1;exitX=0.5;exitY=1;exitDx=0;exitDy=0;entryX=0.5;entryY=0;entryDx=0;entryDy=0;" parent="1" source="J5CMwq5qaOZ6lLrPTMzF-38" target="HXyb1h_MBJMQMPyVJZ0P-7" edge="1">
          <mxGeometry relative="1" as="geometry">
            <mxPoint x="370.5" y="431" as="sourcePoint" />
          </mxGeometry>
        </mxCell>
        <mxCell id="HXyb1h_MBJMQMPyVJZ0P-6" style="edgeStyle=orthogonalEdgeStyle;rounded=0;orthogonalLoop=1;jettySize=auto;html=1;exitX=0.5;exitY=1;exitDx=0;exitDy=0;" parent="1" source="HXyb1h_MBJMQMPyVJZ0P-7" target="HXyb1h_MBJMQMPyVJZ0P-8" edge="1">
          <mxGeometry relative="1" as="geometry" />
        </mxCell>
        <mxCell id="HXyb1h_MBJMQMPyVJZ0P-7" value="&quot;State&quot;" style="text;html=1;strokeColor=none;fillColor=none;align=center;verticalAlign=middle;whiteSpace=wrap;rounded=0;" parent="1" vertex="1">
          <mxGeometry x="340" y="471" width="40" height="20" as="geometry" />
        </mxCell>
        <mxCell id="HXyb1h_MBJMQMPyVJZ0P-9" style="edgeStyle=orthogonalEdgeStyle;rounded=0;orthogonalLoop=1;jettySize=auto;html=1;exitX=0.5;exitY=1;exitDx=0;exitDy=0;entryX=0.5;entryY=0;entryDx=0;entryDy=0;" parent="1" source="HXyb1h_MBJMQMPyVJZ0P-8" target="J5CMwq5qaOZ6lLrPTMzF-94" edge="1">
          <mxGeometry relative="1" as="geometry" />
        </mxCell>
        <mxCell id="HXyb1h_MBJMQMPyVJZ0P-8" value="ID:x" style="text;html=1;strokeColor=none;fillColor=none;align=center;verticalAlign=middle;whiteSpace=wrap;rounded=0;" parent="1" vertex="1">
          <mxGeometry x="340" y="511" width="40" height="20" as="geometry" />
        </mxCell>
        <mxCell id="HXyb1h_MBJMQMPyVJZ0P-10" value="Warning: every key that has the type int has the defauld value of 0. even if the value is not a int" style="text;html=1;align=center;verticalAlign=middle;whiteSpace=wrap;rounded=0;" parent="1" vertex="1">
          <mxGeometry x="-140" y="750" width="270" height="30" as="geometry" />
        </mxCell>
        <mxCell id="knhx7R2TwHY9HVWLs4xN-3" style="edgeStyle=orthogonalEdgeStyle;rounded=0;orthogonalLoop=1;jettySize=auto;html=1;exitX=0.5;exitY=1;exitDx=0;exitDy=0;entryX=0.5;entryY=0;entryDx=0;entryDy=0;" edge="1" parent="1" source="knhx7R2TwHY9HVWLs4xN-1" target="J5CMwq5qaOZ6lLrPTMzF-86">
          <mxGeometry relative="1" as="geometry" />
        </mxCell>
        <mxCell id="knhx7R2TwHY9HVWLs4xN-1" value="Value:x" style="text;html=1;strokeColor=none;fillColor=none;align=center;verticalAlign=middle;whiteSpace=wrap;rounded=0;" vertex="1" parent="1">
          <mxGeometry x="497.5" y="550" width="40" height="20" as="geometry" />
        </mxCell>
      </root>
    </mxGraphModel>
  </diagram>
</mxfile>
